<?xml version="1.0" encoding="UTF-8"?><svg id="Layer_2" xmlns="http://www.w3.org/2000/svg" viewBox="0 0 73.7 54.89"><defs><style>.cls-1,.cls-2{fill:#fff;}.cls-2{opacity:.5;}</style></defs><g id="Layer_1-2"><g><path class="cls-1" d="M72.04,8.95c-1.11-2.14-2.64-3.88-4.57-5.19s-4.21-2.27-6.82-2.87C58.03,.3,55.23,0,52.23,0h-20.15V14.05l10.06,13.39h0l-10.07,13.4v14.05h13.26v-20.7h6.59c2.84,0,5.58-.31,8.22-.93,2.64-.62,4.96-1.6,6.98-2.95,2.02-1.34,3.62-3.11,4.81-5.31,1.19-2.2,1.78-4.9,1.78-8.1s-.56-5.8-1.67-7.95Zm-12.36,11.24c-.52,.85-1.23,1.54-2.13,2.05-.9,.52-1.93,.88-3.06,1.09-1.14,.21-2.33,.31-3.57,.31h-5.58V10.7h5.81c1.19,0,2.34,.08,3.45,.23,1.11,.15,2.11,.46,2.98,.93,.88,.47,1.58,1.11,2.09,1.94,.52,.83,.78,1.89,.78,3.18s-.26,2.36-.78,3.22Z"/><polygon class="cls-2" points="37.95 27.44 17.33 0 0 0 20.62 27.44 20.62 27.44 0 54.89 17.33 54.89 37.95 27.44 37.95 27.44"/></g></g></svg>