<?xml version="1.0" encoding="UTF-8"?><svg id="Layer_2" xmlns="http://www.w3.org/2000/svg" viewBox="0 0 355.3 226.01"><defs><style>.cls-1,.cls-2{fill:#fff;}.cls-2{opacity:.5;}</style></defs><g id="Layer_1-2"><g><path class="cls-1" d="M352.4,108.2c-5.3-20.5-18.1-38.7-35.4-50.8-21.1-14.6-44.3-15.7-69.1-15.7-.8,0-1.5-.4-2-1C226.1,15.9,206.9,0,172.5,0c-45,0-74.7,27.1-89.2,65.9-.6,1.6,.5,3.3,2.2,3.5,42.1,5.2,74.2,40.9,74.2,84,0,23.7-9.8,45.7-26.3,61.3-1.7,1.6-.6,4.5,1.7,4.5h131.5c49,0,88.7-39.7,88.7-88.7-.1-7.5-1-15-2.9-22.3Z"/><path class="cls-2" d="M71.03,83.96C31.86,83.96,0,115.82,0,154.99s31.86,71.03,71.03,71.03,71.03-31.86,71.03-71.03-31.86-71.03-71.03-71.03Zm0,116.68c-25.17,0-45.65-20.48-45.65-45.65s20.48-45.65,45.65-45.65,45.65,20.48,45.65,45.65-20.48,45.65-45.65,45.65Z"/></g></g></svg>