<?xml version="1.0" encoding="utf-8"?>
<!-- Generator: Adobe Illustrator 26.5.0, SVG Export Plug-In . SVG Version: 6.00 Build 0)  -->
<svg version="1.1" id="Layer_1" xmlns="http://www.w3.org/2000/svg" xmlns:xlink="http://www.w3.org/1999/xlink" x="0px" y="0px"
	 viewBox="0 0 125.4 125.4" style="enable-background:new 0 0 125.4 125.4;" xml:space="preserve">
<path d="M122.1,3.3c-4.4-4.4-11.5-4.4-15.8,0L62.7,46.8L19.1,3.3c-4.4-4.4-11.5-4.4-15.8,0s-4.4,11.5,0,15.8l43.6,43.6L3.3,106.2
	c-4.4,4.4-4.4,11.5,0,15.8s11.5,4.4,15.8,0l43.6-43.6l43.6,43.6c4.4,4.4,11.5,4.4,15.8,0s4.4-11.5,0-15.8L78.5,62.7l43.6-43.6
	C126.5,14.7,126.5,7.7,122.1,3.3L122.1,3.3z"/>
</svg>
