<?xml version="1.0" encoding="UTF-8"?><svg id="Layer_2" xmlns="http://www.w3.org/2000/svg" viewBox="0 0 157.18 95.15"><defs><style>.cls-1{fill:#eb1f1f;}.cls-2{fill:#ab0000;}</style></defs><g id="Layer_1-2"><g><g><path class="cls-2" d="M131.67,91.78c-.6-15.18-7.14-28.86-17.41-37.62-1.02-.87-1.16-2.37-.35-3.43,4.24-5.56,6.65-12.44,6.65-19.66,0-5.6-1.43-10.88-3.94-15.48h0c22.33-.43,40.56,17.54,40.56,39.77,0,16.94-10.6,31.41-25.52,37.14,.01-.24,.02-.48,0-.72Z"/><path class="cls-2" d="M28.3,34.32s.09-.04,.1-.08C34.17,14.46,52.43,0,74.07,0c.01,0,.03,0,.04,0,.95,0,1.2,1.29,.34,1.69-10.49,4.9-17.92,15.25-18.65,27.4-.48,8.11,1.99,15.81,6.75,21.9,.72,.92,.6,2.25-.3,3.01-10.25,8.63-16.82,22.12-17.58,37.14-.04,.79-.05,2.1,.17,2.87,.17,.58-.25,1.15-.84,1.15h-12.86c-16.87,0-31.06-13.43-31.14-30.3-.08-16.17,12.44-29.42,28.3-30.52Z"/></g><path class="cls-1" d="M124.94,93.07c-.71-17.8-10.65-33.79-24.35-39.54,7.89-4.38,13.24-12.8,13.24-22.46,0-14.74-12.42-26.57-27.36-25.62-12.8,.81-23.18,11.24-23.95,24.05-.62,10.32,4.87,19.42,13.19,24.04-13.7,5.75-23.64,21.74-24.35,39.54-.04,1.11,.83,2.03,1.94,2.03H123.01c1.11,0,1.98-.93,1.94-2.03Zm-21.33-63.59c.98,9.83-7.22,18.02-17.04,17.04-7.27-.72-13.15-6.6-13.87-13.87-.97-9.82,7.21-18.01,17.04-17.04,7.27,.72,13.15,6.6,13.87,13.87Z"/></g></g></svg>