<?xml version="1.0" encoding="UTF-8"?><svg id="Layer_2" xmlns="http://www.w3.org/2000/svg" viewBox="0 0 157.75 100"><defs><style>.cls-1{fill:#333378;}.cls-2{fill:#5547d9;}</style></defs><g id="Layer_1-2"><g><path class="cls-1" d="M55.01,35.22c1.43-3.01,4.45-4.88,7.89-4.88h61.08c2.85,0,5.58,1.53,7.14,4,1.49,2.35,1.68,5.2,.53,7.63l-11.09,23.35c-.09,.26-.19,.51-.31,.75l-15.53,32.68c-.26,.54,.14,1.17,.74,1.17h5.54s6.3-.02,6.3-.02c22.33,0,40.44-18.1,40.44-40.44h0c0-22.33-18.1-40.44-40.44-40.44h-9.07C99.09,7.44,90.33,0,74.42,0,50.82,0,36.45,16.36,31.22,38.36c-.12,0-.23,0-.35,0C13.83,38.35,0,52.17,0,69.21c0,.19,0,.38,0,.57,.13,14.49,10.32,26.51,23.87,29.55,.92,.21,1.5-.52,1.91-1.39"/><path class="cls-2" d="M123.79,37.34H62.71c-.73,0-1.31,.32-1.57,.88l-17.13,36.05c-.03,.07-.05,.15-.06,.22l-11.34,23.88c-.31,.64,.51,1.62,1.35,1.62h61.08c.73,0,1.31-.32,1.57-.88l17.13-36.05c.03-.07,.05-.15,.06-.22l11.34-23.88c.31-.64-.51-1.62-1.35-1.62Zm-51.66,14.46h28.43c.67,0,1.12,.7,.83,1.31l-3.72,7.8c-.15,.32-.47,.52-.83,.52h-28.43c-.67,0-1.12-.7-.83-1.31l3.72-7.8c.15-.32,.47-.52,.83-.52Zm13.31,33.74h-28.43c-.67,0-1.12-.7-.83-1.31l3.72-7.8c.15-.32,.47-.52,.83-.52h28.43c.67,0,1.12,.7,.83,1.31l-3.72,7.8c-.15,.32-.47,.52-.83,.52Z"/></g></g></svg>