<svg xmlns="http://www.w3.org/2000/svg" viewBox="0 0 640 640"><path d="M128 160v49c5.2-.7 10.6-1 16-1 70.7 0 128 57.3 128 128 0 27.7-8.8 53.4-23.8 74.4C291 427.9 323.3 465.8 333 512h211c35.3 0 64-28.7 64-64V160c0-35.3-28.7-64-64-64H192c-35.3 0-64 28.7-64 64m175 111c9.4-9.4 24.6-9.4 33.9 0l31 31 78.1-78.1h-30.1c-13.3 0-24-10.7-24-24s10.7-24 24-24h88c13.3 0 24 10.7 24 24v88c0 13.3-10.7 24-24 24s-24-10.7-24-24v-30.1l-95 95c-4.5 4.5-10.6 7-17 7s-12.5-2.5-17-7l-48-48c-9.4-9.4-9.4-24.6 0-33.9z" style="fill:#eb001a;isolation:isolate;opacity:.53"/><path d="M144 416c44.2 0 80-35.8 80-80s-35.8-80-80-80-80 35.8-80 80 35.8 80 80 80m-48 32c-53 0-96 43-96 96 0 17.7 14.3 32 32 32h224c17.7 0 32-14.3 32-32 0-53-43-96-96-96z" style="fill:#eb001a"/></svg>