<svg xmlns="http://www.w3.org/2000/svg" viewBox="0 0 640 640"><path d="m124.8 96 46.5 256h303.6c30.8 0 57.2-21.9 62.9-52.2l31.1-165.9c3.7-19.7-11.4-37.9-31.5-37.9z" style="fill:#eb001a;isolation:isolate;opacity:.53"/><path d="M24 48C10.7 48 0 58.7 0 72s10.7 24 24 24h45.3c3.9 0 7.2 2.8 7.9 6.6l52.1 286.3c6.2 34.2 36 59.1 70.8 59.1H456c13.3 0 24-10.7 24-24s-10.7-24-24-24H200.1c-11.6 0-21.5-8.3-23.6-19.7L124.4 94c-4.8-26.6-28-46-55.1-46zm232 480c0-26.5-21.5-48-48-48s-48 21.5-48 48 21.5 48 48 48 48-21.5 48-48m224 0c0-26.5-21.5-48-48-48s-48 21.5-48 48 21.5 48 48 48 48-21.5 48-48" style="fill:#eb001a"/></svg>