<svg xmlns="http://www.w3.org/2000/svg" viewBox="0 0 640 640"><path d="M96 480c0 35.3 28.7 64 64 64 23.7 0 44.4-12.9 55.4-32H248v8c0 9.7 5.8 18.5 14.8 22.2s19.3 1.7 26.2-5.2l40-40c9.4-9.4 9.4-24.6 0-33.9l-40-40c-6.9-6.9-17.2-8.9-26.2-5.2S248 430.3 248 440v8h-32.6c-11.1-19.1-31.7-32-55.4-32-35.3 0-64 28.7-64 64m320-320c0 35.3 28.7 64 64 64s64-28.7 64-64-28.7-64-64-64-64 28.7-64 64" style="fill:#eb001a;isolation:isolate;opacity:.53"/><path d="M321 103c-6.9-6.9-17.2-8.9-26.2-5.2S280 110.3 280 120v8H176c-61.9 0-112 50.1-112 112s50.1 112 112 112h288c26.5 0 48 21.5 48 48 0 14.7-6.6 27.8-17 36.6-11.7-12.7-28.4-20.6-47-20.6-35.3 0-64 28.7-64 64s28.7 64 64 64c27.2 0 50.4-16.9 59.7-40.8 40.2-17 68.3-56.8 68.3-103.2 0-61.9-50.1-112-112-112H176c-26.5 0-48-21.5-48-48s21.5-48 48-48h104v8c0 9.7 5.8 18.5 14.8 22.2s19.3 1.7 26.2-5.2l40-40c9.4-9.4 9.4-24.6 0-33.9z" style="fill:#eb001a"/></svg>