<svg xmlns="http://www.w3.org/2000/svg" viewBox="0 0 640 640"><path d="M88 576c-6.2 0-12.3-2.3-17-7-9.4-9.4-9.4-24.6 0-33.9L375 231c9.4-9.4 24.6-9.4 33.9 0s9.4 24.6 0 33.9L105 569c-4.7 4.7-10.8 7-17 7" style="fill:#eb001a"/><path d="M128 394v84l247-247c9.4-9.4 24.6-9.4 33.9 0s9.4 24.6 0 33.9l-247 247h84c49.7 0 97.9-14.4 139-41 11.1-7.2 5.5-23-7.8-23-5.1 0-9.2-4.1-9.2-9.2 0-4.1 2.7-7.6 6.5-8.8l81-24.3c2.5-.8 4.8-2.1 6.7-4l22.4-22.4c10.1-10.1 2.9-27.3-11.3-27.3H441c-5.1 0-9.2-4.1-9.2-9.2 0-4.1 2.7-7.6 6.5-8.8l112-33.6c4-1.2 7.4-3.9 9.3-7.7 10.5-21.2 16.1-44.7 16.1-68.8 0-41-16.3-80.3-45.3-109.3l-5.5-5.5C496.3 80.3 457 64 416 64s-80.3 16.3-109.3 45.3L203 213c-48 48-75 113.1-75 181" style="fill:#eb001a;isolation:isolate;opacity:.53"/></svg>