<svg xmlns="http://www.w3.org/2000/svg" viewBox="0 0 640 640"><path d="M96 160v320c0 35.3 28.7 64 64 64h320c35.3 0 64-28.7 64-64V160c0-35.3-28.7-64-64-64H160c-35.3 0-64 28.7-64 64m66.7 307.1c-4.1-7.9-3.5-17.5 1.6-24.8l56-80c4.5-6.4 11.8-10.2 19.7-10.2s15.2 3.8 19.7 10.2l26.4 37.8 61.4-100.5c4.4-7.1 12.1-11.5 20.5-11.5s16.1 4.4 20.5 11.5l88 144c4.5 7.4 4.7 16.7.5 24.3S464.7 480 456 480H184c-8.9 0-17.2-5-21.3-12.9M272 224c0 26.5-21.5 48-48 48s-48-21.5-48-48 21.5-48 48-48 48 21.5 48 48" style="fill:#eb001a;isolation:isolate;opacity:.53"/><path d="M388.5 299.5c-4.4-7.1-12.1-11.5-20.5-11.5s-16.1 4.4-20.5 11.5L286.1 400l-26.4-37.8c-4.5-6.4-11.8-10.2-19.7-10.2s-15.2 3.8-19.7 10.2l-56 80c-5.1 7.3-5.8 16.9-1.6 24.8s12.4 13 21.3 13h272c8.7 0 16.7-4.7 20.9-12.3s4.1-16.8-.5-24.3l-88-144z" style="fill:#eb001a"/></svg>