<svg xmlns="http://www.w3.org/2000/svg" viewBox="0 0 640 640"><path d="M48 546.3c0 16.4 13.3 29.7 29.7 29.7H436c-90.9-2.1-164-76.5-164-168 0-13.8 1.7-27.2 4.8-40h-50.5C127.8 368 48 447.8 48 546.3M136 192c0 66.3 53.7 120 120 120 20.9 0 40.5-5.3 57.7-14.7 10.7-12.2 23.2-22.9 37.1-31.6 15.8-20.3 25.2-45.9 25.2-73.6 0-66.3-53.7-120-120-120S136 125.7 136 192" style="fill:#eb001a;isolation:isolate;opacity:.53"/><path d="M512 408.1c0-39.8-32.2-72-72-72s-72 32.2-72 72 32.2 72 72 72 72-32.2 72-72m-5.8 100.1c-19 12.6-41.7 19.9-66.2 19.9-66.3 0-120-53.7-120-120s53.7-120 120-120 120 53.7 120 120c0 24.5-7.3 47.2-19.9 66.2l60.9 60.8c9.4 9.4 9.4 24.6 0 33.9s-24.6 9.4-33.9 0l-60.8-60.9z" style="fill:#eb001a"/></svg>