<?xml version="1.0" standalone="no"?>
<!DOCTYPE svg PUBLIC "-//W3C//DTD SVG 20010904//EN"
 "http://www.w3.org/TR/2001/REC-SVG-20010904/DTD/svg10.dtd">
<svg version="1.0" xmlns="http://www.w3.org/2000/svg"
 width="288.000000pt" height="288.000000pt" viewBox="0 0 288.000000 288.000000"
 preserveAspectRatio="xMidYMid meet">
<metadata>
Created by potrace 1.14, written by Peter Selinger 2001-2017
</metadata>
<g transform="translate(0.000000,288.000000) scale(0.100000,-0.100000)"
fill="#000000" stroke="none">
<path d="M1220 2640 c-507 -93 -888 -479 -984 -995 -15 -81 -16 -343 -1 -410
3 -16 10 -49 16 -73 98 -440 477 -812 925 -907 105 -23 121 -24 249 -26 99 -1
130 1 230 17 39 6 174 42 200 54 231 98 390 212 516 369 109 134 172 250 223
406 63 194 74 420 31 620 -2 11 -6 31 -9 44 -11 52 -50 159 -82 226 -160 340
-475 587 -856 671 -108 24 -339 26 -458 4z m386 -328 c202 -43 362 -137 501
-296 l43 -48 -113 -70 c-148 -92 -143 -87 -117 -130 24 -41 36 -78 54 -158 61
-279 -143 -597 -502 -781 -64 -33 -71 -39 -42 -35 110 16 272 90 371 170 167
135 267 335 283 563 1 12 5 26 10 30 4 4 54 8 111 9 92 0 104 -2 108 -18 7
-26 -8 -31 -97 -33 l-81 -1 -7 -54 c-37 -272 -187 -488 -430 -623 -57 -32
-202 -84 -255 -92 -21 -3 -50 -8 -63 -10 -38 -8 -219 -8 -275 0 -47 6 -168 36
-210 51 -38 14 -9 -5 60 -39 86 -42 148 -63 244 -81 72 -13 246 -14 306 -1 97
20 124 29 188 55 150 65 298 188 384 323 25 40 47 73 48 75 1 1 25 -11 53 -29
46 -29 50 -33 40 -55 -10 -22 -12 -22 -40 -8 -17 9 -31 14 -33 12 -2 -2 -23
-30 -48 -63 -126 -170 -312 -296 -507 -346 -25 -6 -54 -13 -65 -16 -11 -3 -78
-6 -150 -8 -135 -3 -252 17 -349 58 -97 42 -244 171 -316 277 -65 96 -124 231
-137 315 -2 17 -8 46 -12 66 -9 40 -7 227 3 274 64 304 237 527 506 652 151
71 378 98 536 65z"/>
</g>
</svg>
