<?xml version="1.0" encoding="UTF-8"?><svg id="Layer_2" xmlns="http://www.w3.org/2000/svg" viewBox="0 0 94.79 54.89"><defs><style>.cls-1,.cls-2{fill:#fff;}.cls-2{opacity:.5;}</style></defs><g id="Layer_1-2"><g><polygon class="cls-1" points="75.64 0 63.7 35.19 63.39 35.19 50.91 0 32.07 0 32.07 14.05 42.14 27.44 42.14 27.44 32.07 40.84 32.07 54.88 44.56 54.88 44.24 16.05 44.48 16.05 58.35 54.88 67.66 54.88 81.92 16.05 82.15 16.05 81.84 54.88 94.79 54.88 94.79 0 75.64 0"/><polygon class="cls-2" points="37.95 27.44 17.33 0 0 0 20.62 27.44 20.62 27.44 0 54.89 17.33 54.89 37.95 27.44 37.95 27.44"/></g></g></svg>