<?xml version="1.0" standalone="no"?>
<!DOCTYPE svg PUBLIC "-//W3C//DTD SVG 20010904//EN"
 "http://www.w3.org/TR/2001/REC-SVG-20010904/DTD/svg10.dtd">
<svg version="1.0" xmlns="http://www.w3.org/2000/svg"
 width="700.000000pt" height="700.000000pt" viewBox="0 0 700.000000 700.000000"
 preserveAspectRatio="xMidYMid meet">
<metadata>
Created by potrace 1.14, written by Peter Selinger 2001-2017
</metadata>
<g transform="translate(0.000000,700.000000) scale(0.100000,-0.100000)"
fill="#000000" stroke="none">
<path d="M3279 6996 c-2 -2 -40 -6 -84 -10 -111 -8 -255 -29 -365 -51 -14 -3
-38 -8 -55 -11 -16 -3 -73 -16 -125 -29 -474 -120 -914 -335 -1300 -634 -237
-183 -468 -419 -646 -656 -70 -93 -154 -213 -154 -219 0 -3 -13 -24 -29 -48
-79 -119 -214 -389 -284 -569 -66 -169 -129 -382 -168 -574 -7 -33 -13 -62
-14 -65 0 -3 -4 -27 -9 -55 -4 -27 -9 -63 -12 -79 -19 -117 -28 -278 -28 -501
0 -194 6 -327 19 -406 2 -13 6 -46 10 -74 9 -76 16 -116 25 -160 5 -22 11 -53
14 -70 60 -326 242 -791 426 -1088 30 -48 60 -95 65 -105 22 -40 128 -184 202
-278 211 -265 486 -520 762 -707 349 -237 785 -430 1157 -512 49 -11 171 -37
184 -40 13 -2 85 -13 205 -30 143 -20 559 -27 730 -12 1241 111 2321 862 2858
1988 30 63 58 125 62 139 4 14 11 30 15 35 30 37 152 436 186 603 2 12 6 34 9
50 7 31 10 50 19 112 4 25 9 52 11 60 2 8 7 47 11 85 3 39 8 84 11 100 8 59
10 512 2 597 -13 141 -22 208 -39 308 -6 36 -13 79 -16 95 -23 129 -109 427
-171 585 -202 521 -542 1003 -968 1374 -120 105 -330 260 -450 333 -231 141
-465 252 -701 333 -102 35 -302 92 -364 104 -14 2 -56 11 -95 19 -88 19 -140
27 -268 42 -34 4 -71 9 -82 12 -22 5 -551 14 -556 9z m436 -960 c100 -10 150
-16 171 -20 11 -2 39 -7 64 -11 71 -11 267 -61 355 -90 832 -278 1476 -982
1670 -1825 49 -214 68 -368 68 -565 1 -105 -9 -297 -17 -340 -2 -11 -7 -42
-10 -68 -21 -143 -91 -417 -126 -492 -5 -11 -18 -43 -29 -71 -22 -58 -58 -140
-73 -168 -5 -10 -28 -53 -50 -95 -108 -202 -251 -393 -428 -571 -74 -75 -148
-147 -165 -160 -212 -174 -475 -333 -690 -415 -38 -15 -79 -31 -90 -35 -59
-25 -301 -92 -375 -104 -19 -3 -57 -10 -85 -15 -133 -25 -507 -36 -660 -19
-489 54 -948 241 -1320 538 -411 328 -717 781 -860 1271 -31 107 -61 235 -71
302 -2 15 -6 42 -9 60 -30 197 -27 602 5 752 5 22 11 58 15 80 33 222 163 575
284 775 11 19 24 42 28 50 6 13 85 137 105 165 285 394 659 695 1090 878 94
40 292 108 356 122 12 3 30 7 40 9 100 24 147 33 212 42 25 3 52 7 60 9 8 2
53 7 100 11 47 3 86 7 87 8 5 4 289 -2 348 -8z"/>
<path d="M5395 4878 c-33 -21 -172 -109 -308 -196 -136 -86 -260 -165 -275
-174 -15 -10 -34 -21 -42 -25 -8 -3 -17 -9 -20 -13 -3 -3 -31 -21 -62 -40 -62
-36 -66 -44 -44 -76 62 -88 143 -298 173 -447 20 -100 23 -385 5 -467 -7 -30
-14 -66 -17 -80 -3 -14 -17 -61 -31 -105 -133 -403 -452 -794 -877 -1074 -159
-105 -327 -196 -455 -246 -39 -15 -70 -30 -68 -32 6 -7 168 25 274 53 352 94
686 290 928 546 255 271 429 630 479 988 3 25 8 52 10 60 3 12 14 143 19 225
1 19 9 20 226 22 124 1 308 2 409 3 l183 0 -7 58 c-3 31 -10 73 -15 92 -5 19
-11 51 -14 70 -17 114 -109 376 -190 540 -61 123 -194 342 -214 354 -4 2 -34
-14 -67 -36z"/>
<path d="M5199 3641 c0 -20 -2 -43 -3 -51 -3 -14 -17 -114 -22 -150 -3 -27
-44 -194 -60 -245 -125 -398 -355 -733 -674 -981 -151 -118 -315 -211 -510
-289 -107 -43 -306 -106 -375 -118 -16 -3 -41 -8 -55 -12 -171 -40 -612 -52
-775 -21 -11 2 -42 7 -70 10 -82 12 -106 16 -195 37 -47 11 -95 22 -107 24
-12 3 -63 19 -113 35 -51 17 -95 30 -98 30 -34 0 262 -149 383 -193 169 -61
246 -81 470 -122 105 -19 373 -25 515 -12 553 52 1087 338 1431 767 49 61 179
254 224 333 l20 35 235 -149 c129 -82 237 -149 240 -149 21 1 170 397 195 520
2 8 10 44 18 80 9 36 19 92 22 125 4 33 9 63 11 66 11 19 19 266 13 390 l-4
77 -357 0 -358 -1 -1 -36z"/>
<path d="M5164 2430 c-74 -112 -220 -285 -310 -371 -212 -200 -487 -372 -757
-473 -99 -37 -303 -94 -367 -102 -19 -2 -60 -9 -90 -14 -30 -5 -82 -12 -115
-15 -66 -7 -365 -8 -405 -1 -14 2 -56 8 -95 12 -38 4 -72 8 -75 9 -11 2 -87
17 -110 22 -14 2 -43 9 -65 14 -22 5 -49 12 -61 14 -55 12 -221 72 -329 117
-231 99 -450 236 -670 418 -60 49 -301 296 -339 347 -22 29 -41 51 -43 49 -3
-3 25 -58 91 -181 25 -46 149 -225 198 -287 290 -361 691 -638 1134 -783 72
-24 219 -64 264 -71 14 -3 48 -9 75 -14 238 -44 536 -46 789 -5 654 105 1243
480 1620 1031 42 62 76 117 76 122 0 6 6 12 13 15 8 3 9 8 2 15 -10 11 -353
232 -360 232 -2 0 -34 -45 -71 -100z"/>
</g>
</svg>
