<?xml version="1.0" encoding="UTF-8"?>
<svg id="Layer_1" data-name="Layer 1" xmlns="http://www.w3.org/2000/svg" xmlns:xlink="http://www.w3.org/1999/xlink" viewBox="0 0 1380.8577957153 915.3029785156">
  <defs>
    <linearGradient id="linear-gradient" x1="-551.279692195" y1="-46.4569205953" x2="-450.6665914458" y2="98.2444359634" gradientTransform="translate(1288.466968438 518.386621472) rotate(-26.6143990229) scale(.9999999724 -.9999999724)" gradientUnits="userSpaceOnUse">
      <stop offset="0" stop-color="#5548d9"/>
      <stop offset="1" stop-color="#5cc8bb"/>
    </linearGradient>
    <linearGradient id="linear-gradient-2" x1="664.962638855" y1="82.1059265137" x2="1207.0686569214" y2="82.1059265137" gradientTransform="translate(137.0950469971 592.8332519531) scale(1 -1)" gradientUnits="userSpaceOnUse">
      <stop offset="0" stop-color="#fff"/>
      <stop offset=".1484000206" stop-color="#f3f9fe"/>
      <stop offset=".412423439" stop-color="#d5e9fd"/>
      <stop offset=".7591293335" stop-color="#a4cffa"/>
      <stop offset=".8522251129" stop-color="#96c8fa"/>
    </linearGradient>
    <clipPath id="clippath">
      <path d="M1024.2160720825,466.092590332c-9.5441894531-2.9032592773-19.6928710938-4.4803466797-30.220703125-4.4803466797-55.7636108398,0-100.9671020508,43.9279785156-100.9671020508,98.1202392578,0,1.7574462891,.1775512695,3.4712524414,.2691650391,5.2061157227-8.6068725586-4.2801513672-18.332824707-6.7423095703-28.6675415039-6.7423095703-32.2135009766,0-58.7331542969,23.4769287109-62.5722045898,53.772277832h542.1060180664c-.7836914062-33.20703125-28.6831054688-59.9043579102-63.0416259766-59.9043579102-2.2592773438,0-4.4874267578,.129699707-6.6860351562,.352355957,.2043457031-2.3944702148,.3763427734-4.8016357422,.3763427734-7.2482299805,0-47.8347167969-39.9072265625-86.6185913086-89.1342773438-86.6185913086-12.7264404297,0-24.8045654297,2.6354980469-35.7552490234,7.3060913086-2.6030273438-31.546875-29.7175292969-56.3697509766-62.8485107422-56.3697509766-33.2126464844,0-60.3721923828,24.9497070312-62.8582763672,56.6065063477" style="fill: none;"/>
    </clipPath>
    <linearGradient id="linear-gradient-3" x1="512.467689041" y1="2270.982217493" x2="513.8766825793" y2="2270.982217493" gradientTransform="translate(-196368.2748885995 -873242.5424526222) scale(384.7468566895)" gradientUnits="userSpaceOnUse">
      <stop offset="0" stop-color="#fff"/>
      <stop offset=".1484000206" stop-color="#f3f9fe"/>
      <stop offset=".412423439" stop-color="#d5e9fd"/>
      <stop offset=".7591293335" stop-color="#a4cffa"/>
      <stop offset=".8522251129" stop-color="#96c8fa"/>
    </linearGradient>
    <linearGradient id="linear-gradient-4" x1="-137.0950393677" y1="175.1044616699" x2="910.6057662964" y2="175.1044616699" gradientTransform="translate(137.0950469971 592.8332519531) scale(1 -1)" gradientUnits="userSpaceOnUse">
      <stop offset="0" stop-color="#fff"/>
      <stop offset=".1484000206" stop-color="#f3f9fe"/>
      <stop offset=".412423439" stop-color="#d5e9fd"/>
      <stop offset=".7591293335" stop-color="#a4cffa"/>
      <stop offset=".8522251129" stop-color="#96c8fa"/>
    </linearGradient>
    <clipPath id="clippath-1">
      <path d="M429.3544692993,331.4653930664c-18.4454956055-5.6109619141-38.059387207-8.6589355469-58.4060974121-8.6589355469-107.7715454102,0-195.1340026855,84.8973999023-195.1340026855,189.6320800781,0,3.3965454102,.3431396484,6.7086791992,.5201873779,10.0616455078-16.6340942383-8.2720947266-35.4308776855-13.0305175781-55.4043579102-13.0305175781C58.6728439331,509.4696655273,7.4195709229,554.8422851562,.0000076294,613.3926391602H1047.7008132935c-1.5145263672-64.1775512695-55.4344482422-115.7741699219-121.8373413086-115.7741699219-4.3662719727,0-8.6725463867,.2506103516-12.9216308594,.6809692383,.3950195312-4.6276245117,.727355957-9.2798461914,.727355957-14.0083007812,0-92.4477539062-77.1265869141-167.4033813477-172.2652587891-167.4033813477-24.5957641602,0-47.9385986328,5.0934448242-69.102355957,14.1201171875-5.0307617188-60.9690551758-57.4335327148-108.9429321289-121.4641113281-108.9429321289-64.1884765625,0-116.6783752441,48.2190551758-121.4830322266,109.4005126953" style="fill: none;"/>
    </clipPath>
    <linearGradient id="linear-gradient-5" x1="510.3830518025" y1="2270.7405037672" x2="513.1061427726" y2="2270.7405037672" gradientTransform="translate(-196368.2748885995 -873242.5424526222) scale(384.7468566895)" gradientUnits="userSpaceOnUse">
      <stop offset="0" stop-color="#fff"/>
      <stop offset=".1484000206" stop-color="#f3f9fe"/>
      <stop offset=".412423439" stop-color="#d5e9fd"/>
      <stop offset=".7591293335" stop-color="#a4cffa"/>
      <stop offset=".8522251129" stop-color="#96c8fa"/>
    </linearGradient>
    <linearGradient id="linear-gradient-6" x1="1227.6988601685" y1="4.5039367676" x2="1380.8577957153" y2="4.5039367676" gradientTransform="translate(0 592.8332519531) scale(1 -1)" gradientUnits="userSpaceOnUse">
      <stop offset="0" stop-color="#5548d9"/>
      <stop offset=".1345437431" stop-color="#3f5dc8"/>
      <stop offset=".3436645126" stop-color="#2477b4"/>
      <stop offset=".5565233231" stop-color="#118aa5"/>
      <stop offset=".7733163452" stop-color="#05959c"/>
      <stop offset="1" stop-color="#02999a"/>
    </linearGradient>
    <linearGradient id="linear-gradient-7" x1="506.7574851982" y1="2300.2560970151" x2="511.9931826019" y2="2300.2560970151" gradientTransform="translate(-34584.6674493998 -158727.4274003506) scale(69.208984375)" gradientUnits="userSpaceOnUse">
      <stop offset="0" stop-color="#b6d9fc"/>
      <stop offset=".3103650475" stop-color="#d0e7fd"/>
      <stop offset=".7563825989" stop-color="#f2f8fe"/>
      <stop offset="1" stop-color="#fff"/>
    </linearGradient>
    <linearGradient id="linear-gradient-8" x1="320.2960487927" y1="-14.7156012927" x2="488.9260276233" y2="-183.3456474866" gradientTransform="translate(0 592.8332519531) scale(1 -1)" gradientUnits="userSpaceOnUse">
      <stop offset="0" stop-color="#eb1f1f"/>
      <stop offset=".2504845619" stop-color="#bf2a54"/>
      <stop offset=".6100821686" stop-color="#863a9b"/>
      <stop offset=".8693281555" stop-color="#6244c7"/>
      <stop offset="1" stop-color="#5548d9"/>
    </linearGradient>
    <linearGradient id="linear-gradient-9" x1="403.4139480591" y1="-144.5024414062" x2="403.4139480591" y2="-45.4685058594" gradientTransform="translate(0 592.8332519531) scale(1 -1)" gradientUnits="userSpaceOnUse">
      <stop offset="0" stop-color="#fff"/>
      <stop offset=".9995039368" stop-color="#969696"/>
    </linearGradient>
    <linearGradient id="linear-gradient-10" x1="74.6223734161" y1="223.1892774841" x2="337.4046498993" y2="-39.5929640075" gradientTransform="translate(0 592.8332519531) scale(1 -1)" gradientUnits="userSpaceOnUse">
      <stop offset="0" stop-color="#5548d9"/>
      <stop offset=".1345437431" stop-color="#3f5dc8"/>
      <stop offset=".3436645126" stop-color="#2477b4"/>
      <stop offset=".5565233231" stop-color="#118aa5"/>
      <stop offset=".7733163452" stop-color="#05959c"/>
      <stop offset="1" stop-color="#02999a"/>
    </linearGradient>
    <linearGradient id="linear-gradient-11" x1="144.8764724731" y1="93.8068847656" x2="267.150428772" y2="93.8068847656" gradientTransform="translate(0 592.8332519531) scale(1 -1)" gradientUnits="userSpaceOnUse">
      <stop offset="0" stop-color="#fff"/>
      <stop offset=".9995039368" stop-color="#969696"/>
    </linearGradient>
    <linearGradient id="linear-gradient-12" x1="340.5705345649" y1="466.8719899563" x2="443.0867072564" y2="344.6979563328" gradientTransform="translate(0 592.8332519531) scale(1 -1)" gradientUnits="userSpaceOnUse">
      <stop offset="0" stop-color="#eb1f1f"/>
      <stop offset=".2504845619" stop-color="#bf2a54"/>
      <stop offset=".6100821686" stop-color="#863a9b"/>
      <stop offset=".8693281555" stop-color="#6244c7"/>
      <stop offset="1" stop-color="#5548d9"/>
    </linearGradient>
    <linearGradient id="linear-gradient-13" x1="1017.0555496216" y1="254.6305541992" x2="1249.008430481" y2="254.6305541992" gradientTransform="translate(0 592.8332519531) scale(1 -1)" gradientUnits="userSpaceOnUse">
      <stop offset="0" stop-color="#5548d9"/>
      <stop offset=".1345437431" stop-color="#3f5dc8"/>
      <stop offset=".3436645126" stop-color="#2477b4"/>
      <stop offset=".5565233231" stop-color="#118aa5"/>
      <stop offset=".7733163452" stop-color="#05959c"/>
      <stop offset="1" stop-color="#02999a"/>
    </linearGradient>
  </defs>
  <path d="M1131.5166091919,136.0026855469V0h-138.555480957V29.8484802246h85.1907348633l-372.0747070312,371.8340148926c-10.8284912109-6.868347168-23.6500854492-10.864440918-37.3947753906-10.864440918-14.330871582,0-27.6650390625,4.3340454102-38.7750244141,11.7498168945L262.8289871216,36.93359375h86.6070556641V7.0850219727H212.6468734741V144.84375h29.8484954834V58.8090209961l366.6549072266,365.2130737305c-6.6485595703,10.7076416016-10.5009765625,23.3242797852-10.5009765625,36.8284912109,0,13.8862915039,4.0791015625,26.8298950195,11.0780029297,37.7281494141L248.3729934692,864.3015136719v-86.7583007812h-29.8484954834v137.759765625h129.1601715088v-29.8485107422h-78.2512512207l361.3737182617-365.7432250977c10.9286499023,7.0568237305,23.9265136719,11.1723632812,37.8751831055,11.1723632812,14.0112304688,0,27.063659668-4.1519165039,38.0224609375-11.2672119141l367.102355957,364.8772583008h-80.0930175781v29.8485107422h130.9678955078v-135.8381347656h-29.8483886719v84.8038330078l-367.1025390625-364.8768310547c6.9407348633-10.8675537109,10.9830932617-23.7569580078,10.9830932617-37.5804443359,0-14.0895996094-4.1969604492-27.2107543945-11.3854980469-38.2072143555L1101.6679763794,48.5456542969v87.4570922852h29.8485107422l.0001220703-.0000610352Zm-503.0187988281,324.8478393555c0-22.1577148438,18.0267944336-40.1838989258,40.1845092773-40.1838989258s40.1839599609,18.026184082,40.1839599609,40.1838989258c0,22.1583251953-18.0262451172,40.1845703125-40.1839599609,40.1845703125s-40.1845092773-18.0262451172-40.1845092773-40.1845703125Z" style="fill: #5548d9;"/>
  <path d="M888.9279251099,655.0495605469c-1.8395385742-2.0831298828-5.0443115234-2.6569824219-7.4929199219-1.3546142578l-14.9458618164,7.2518310547-.1438598633,.0743408203c-.3114013672,.1722412109-1.1979980469,.1651611328-1.5061035156-.0120849609l-11.2079467773-5.5042724609-.181640625-.0817871094c-.3299560547-.1357421875-.8811035156-.8352050781-.9360961914-1.1879882812l-3.4634399414-16.4201660156c-.47265625-2.7348632812-2.8919067383-4.9141235352-5.6669921875-5.087097168l-17.6237792969-1.1008300781c-2.7731323242-.1734008789-5.4450073242,1.6880493164-6.2557983398,4.3418579102l-5.4284057617,15.7014160156-.0490112305,.1553955078c-.0970458984,.33984375-.7272338867,.9581298828-1.0703125,1.0496826172l-11.8181762695,4.0274658203-.1851806641,.0700683594c-.3309326172,.1378173828-1.2189331055,.0330810547-1.5078125-.177734375l-14.0724487305-9.1485595703c-2.2687988281-1.5964355469-5.5180053711-1.4254150391-7.6002807617,.412109375l-.0029907227,.0025634766-6.8572387695,6.0533447266-6.6153564453,5.8352050781-.0029907227,.0025634766c-2.0823364258,1.8375244141-2.6563720703,5.0401611328-1.3546142578,7.4899902344l7.3262939453,15.1014404297c.1731567383,.3128662109,.1665649414,1.20703125-.0113525391,1.5181884766l-.0925292969,.1750488281-5.466796875,11.2250976562c-.133605957,.3289794922-.8254394531,.8773193359-1.1747436523,.9313964844l-.1602783203,.029296875-16.2548828125,3.4323730469c-2.7340698242,.4742431641-4.9135131836,2.8936767578-5.0866088867,5.6668701172l-1.1008300781,17.6237792969c-.1737060547,2.7750244141,1.6876220703,5.4466552734,4.3424072266,6.2559814453l15.8615722656,5.4798583984c.3430786133,.0985107422,.9686279297,.732421875,1.0622558594,1.0766601562l.0585327148,.1904296875,4.0668334961,11.8057861328c.1376342773,.3277587891,.0342407227,1.2083740234-.1753540039,1.4958496094l-.0916748047,.1335449219-9.0552368164,13.9273681641c-1.5969238281,2.267578125-1.4263305664,5.5187988281,.4117431641,7.6032714844l11.6589355469,13.2176513672c1.8394165039,2.0844726562,5.0437011719,2.6589355469,7.4927978516,1.3566894531l15.0982666016-7.3277587891c.3134155273-.1733398438,1.2061157227-.1671142578,1.5163574219,.0103759766l.1765136719,.0935058594,11.2293701172,5.4689941406c.328125,.1340332031,.8754882812,.8270263672,.9299926758,1.1768798828l.0293579102,.1595458984,3.4302978516,16.2514648438c.4729614258,2.7344970703,2.8916015625,4.9136962891,5.6664428711,5.0875244141l17.625,1.1007080078c2.7755126953,.173828125,5.4461669922-1.6875,6.2559814453-4.3424072266l5.4824829102-15.8623046875c.0983276367-.3432617188,.7313232422-.9682617188,1.0767822266-1.0614013672l.190246582-.0587158203,11.802734375-4.0684814453c.3272705078-.1374511719,1.2069091797-.0343017578,1.494140625,.1752929688l.1343383789,.0926513672,13.9274291992,9.0565185547c2.2680664062,1.5964355469,5.5189819336,1.4265136719,7.6030273438-.4112548828l.169128418-.1491699219,.0021972656,.0024414062,6.3795166016-5.6317138672,6.6677246094-5.8814697266-.0023193359-.0025634766,.1690673828-.1492919922c2.0827636719-1.8392333984,2.6559448242-5.0437011719,1.3541259766-7.4927978516l-7.2529907227-14.9461669922-.0751342773-.1447753906c-.1722412109-.3110351562-.1651000977-1.1967773438,.0120239258-1.5043945312l5.5054931641-11.2047119141,.0819091797-.1815185547c.1353149414-.3311767578,.8342285156-.8814697266,1.1870727539-.9364013672l16.4212036133-3.4659423828c2.7350463867-.4731445312,4.9142456055-2.8913574219,5.087097168-5.6669921875l1.1010742188-17.625c.1727905273-2.7749023438-1.6885375977-5.4459228516-4.342956543-6.2554931641l-15.6982421875-5.4259033203-.1547241211-.0489501953c-.3403320312-.09765625-.9598388672-.7269287109-1.0520019531-1.0692138672l-4.0291137695-11.8226318359-.0708007812-.1867675781c-.137512207-.3298339844-.0325317383-1.2164306641,.1784057617-1.505859375l9.1495361328-14.0690917969c1.5968017578-2.2680664062,1.4256591797-5.5187988281-.4138183594-7.6033935547l-11.6641235352-13.2130126953,.0000610352,.0003662109Zm-43.3942260742,83.0939941406l.0064697266,.0073242188c-.0487060547,.04296875-.0994873047,.0819091797-.1483764648,.1243896484-.0474243164,.0424804688-.0916137695,.0872802734-.139465332,.1295166016l-.0063476562-.0072021484c-10.2821044922,8.7983398438-25.7554321289,7.7473144531-34.7402954102-2.4346923828-8.9851074219-10.1822509766-8.1027832031-25.6663818359,1.9067382812-34.7738037109l-.0064697266-.0073242188c.0485839844-.0428466797,.0992431641-.0817871094,.1480712891-.1241455078,.0475463867-.0426025391,.091796875-.0874023438,.1397705078-.1297607422l.0064086914,.0072021484c10.2821044922-8.7983398438,25.7556152344-7.7470703125,34.7407226562,2.4353027344,8.9848632812,10.1820068359,8.1022949219,25.6658935547-1.9071655273,34.7731933594h-.0000610352Z" style="fill: url(#linear-gradient);"/>
  <g>
    <path d="M1024.2160720825,466.092590332c-9.5441894531-2.9032592773-19.6928710938-4.4803466797-30.220703125-4.4803466797-55.7636108398,0-100.9671020508,43.9279785156-100.9671020508,98.1202392578,0,1.7574462891,.1775512695,3.4712524414,.2691650391,5.2061157227-8.6068725586-4.2801513672-18.332824707-6.7423095703-28.6675415039-6.7423095703-32.2135009766,0-58.7331542969,23.4769287109-62.5722045898,53.772277832h542.1060180664c-.7836914062-33.20703125-28.6831054688-59.9043579102-63.0416259766-59.9043579102-2.2592773438,0-4.4874267578,.129699707-6.6860351562,.352355957,.2043457031-2.3944702148,.3763427734-4.8016357422,.3763427734-7.2482299805,0-47.8347167969-39.9072265625-86.6185913086-89.1342773438-86.6185913086-12.7264404297,0-24.8045654297,2.6354980469-35.7552490234,7.3060913086-2.6030273438-31.546875-29.7175292969-56.3697509766-62.8485107422-56.3697509766-33.2126464844,0-60.3721923828,24.9497070312-62.8582763672,56.6065063477" style="fill: url(#linear-gradient-2);"/>
    <g style="clip-path: url(#clippath);">
      <rect x="802.0576248169" y="409.4860839844" width="542.1058349609" height="202.4824829102" style="fill: url(#linear-gradient-3);"/>
    </g>
  </g>
  <g>
    <path d="M429.3544692993,331.4653930664c-18.4454956055-5.6109619141-38.059387207-8.6589355469-58.4060974121-8.6589355469-107.7715454102,0-195.1340026855,84.8973999023-195.1340026855,189.6320800781,0,3.3965454102,.3431396484,6.7086791992,.5201873779,10.0616455078-16.6340942383-8.2720947266-35.4308776855-13.0305175781-55.4043579102-13.0305175781C58.6728439331,509.4696655273,7.4195709229,554.8422851562,.0000076294,613.3926391602H1047.7008132935c-1.5145263672-64.1775512695-55.4344482422-115.7741699219-121.8373413086-115.7741699219-4.3662719727,0-8.6725463867,.2506103516-12.9216308594,.6809692383,.3950195312-4.6276245117,.727355957-9.2798461914,.727355957-14.0083007812,0-92.4477539062-77.1265869141-167.4033813477-172.2652587891-167.4033813477-24.5957641602,0-47.9385986328,5.0934448242-69.102355957,14.1201171875-5.0307617188-60.9690551758-57.4335327148-108.9429321289-121.4641113281-108.9429321289-64.1884765625,0-116.6783752441,48.2190551758-121.4830322266,109.4005126953" style="fill: url(#linear-gradient-4);"/>
    <g style="clip-path: url(#clippath-1);">
      <rect y="222.0648803711" width="1047.7006912231" height="391.3276977539" style="fill: url(#linear-gradient-5);"/>
    </g>
  </g>
  <circle cx="1304.2783279419" cy="588.3292999268" r="76.5794906616" style="fill: url(#linear-gradient-6);"/>
  <g>
    <rect x="487.5034255981" y="212.3857421875" width="362.3572998047" height="517.1502685547" rx="47.5726318359" ry="47.5726318359" style="fill: url(#linear-gradient-7);"/>
    <g>
      <path d="M702.9425125122,290.7004394531l-16.245300293-3.1430664062-14.1499633789,30.9133300781-17.2873535156-28.2940673828-16.7690429688,3.1432495117c0,15.1975097656-13.6259765625,28.2938842773-13.6259765625,28.2938842773,0,0,13.1022338867,20.4362182617,12.0544433594,48.2120361328l-43.4915771484,165.5787353516s16.245300293,7.3340454102,34.5860595703,3.6669921875c0,0,14.1441040039,16.7690429688,40.8664550781,6.8100585938,0,0,32.4905395508,13.1022338867,45.5927734375-5.2385253906,0,0,24.6213989258,5.762512207,37.1994628906-3.6669921875l-46.6346435547-167.1502685547s-4.7147827148-29.8712768555,10.4772949219-48.2120361328c0,0-17.2873535156-16.7690429688-12.5725708008-30.9133300781" style="fill: #5548d9;"/>
      <path d="M655.2589187622,290.1771850586l-16.7692260742,3.1432495117c0,6.539855957-2.5234985352,12.6965332031-5.4018554688,17.5802612305-3.8134765625,6.7424926758-8.2241210938,10.7138061523-8.2241210938,10.7138061523,0,0,13.1022338867,20.4360961914,12.0544433594,48.2061767578l-43.4915771484,165.5844116211c.1690063477,.0677490234,.3379516602,.1409301758,.5014648438,.2141723633,2.1291503906,.8731079102,10.7811889648,4.1514282227,21.8047485352,4.4555053711,.4282226562,.0056762695,.8450927734,.0113525391,1.2562866211,.0113525391,3.5824584961,0,6.5116577148-.2985839844,8.4493408203-.5689697266,.8505859375-.1239624023,1.7123413086-.2760620117,2.57421875-.4450683594,1.3856811523,1.4138793945,2.8164672852,2.6474609375,4.275390625,3.7120361328,4.0104980469,2.8334350586,10.803894043,6.2582397461,20.2388916016,6.2582397461,4.7823486328,0,10.2348632812-.8787841797,16.3578491211-3.1600952148,0,0,58.508972168-92.2554321289,20.7797241211-157.7548217773-17.0787963867-29.6571044922-17.1126708984-69.6563110352-17.1126708984-69.6563110352l-17.2928466797-28.2940673828-.0000610352,.0001220703Z" style="fill: #333378;"/>
    </g>
    <polygon points="705.8230667114 378.2727661133 636.1779251099 378.2727661133 636.9159011841 372.639831543 636.9159011841 367.0069580078 704.7075881958 367.0069580078 705.0400466919 372.639831543 705.8230667114 378.2727661133" style="fill: #333378;"/>
    <g>
      <line x1="578.9524002075" y1="574.2790527344" x2="758.8237380981" y2="574.2790527344" style="fill: none; stroke: #5548d9; stroke-miterlimit: 10; stroke-width: 5.0601081848px;"/>
      <line x1="578.9524002075" y1="609.3811645508" x2="758.8237380981" y2="609.3811645508" style="fill: none; stroke: #5548d9; stroke-miterlimit: 10; stroke-width: 5.0601081848px;"/>
      <line x1="578.9524002075" y1="644.4832763672" x2="758.8237380981" y2="644.4832763672" style="fill: none; stroke: #5548d9; stroke-miterlimit: 10; stroke-width: 5.0601081848px;"/>
    </g>
  </g>
  <g>
    <circle cx="404.611038208" cy="691.8638763428" r="119.2394142151" style="fill: url(#linear-gradient-8);"/>
    <g>
      <path d="M478.1879959106,641.4624633789v92.7125854492c0,1.7451171875-1.2598876953,3.1606445312-2.8132019043,3.1606445312h-143.9217834473c-1.5532226562,0-2.8131408691-1.4156494141-2.8131408691-3.1606445312v-92.7125854492c0-1.7465209961,1.2599182129-3.1607055664,2.8131408691-3.1607055664h143.9218139648c1.553314209,0,2.8132019043,1.4141845703,2.8132019043,3.1607055664h-.0000305176Z" style="fill: url(#linear-gradient-9);"/>
      <path d="M321.8112869263,735.8647460938h165.5994262695v3.9086914062c0,3.4421386719-2.7945556641,6.2366943359-6.2366943359,6.2366943359h-154.0602416992c-2.9265441895,0-5.3024902344-2.3759765625-5.3024902344-5.3024902344v-4.8428955078h0Z" style="fill: #c8c8c8;"/>
      <rect x="335.5567092896" y="647.0650634766" width="136.5813598633" height="83.3452148438"/>
    </g>
  </g>
  <g>
    <circle cx="206.0135116577" cy="501.0350952148" r="185.8151168823" style="fill: url(#linear-gradient-10);"/>
    <g>
      <path d="M160.7852096558,385.580871582h90.4590911865c6.8862609863,0,12.4770507812,5.5907592773,12.4770507812,12.4770507812v201.9364624023c0,6.8862304688-5.5907592773,12.4769897461-12.4769897461,12.4769897461h-90.4616088867c-6.8862609863,0-12.4770355225-5.5907592773-12.4770355225-12.4770507812v-201.9338989258c0-6.8876342773,5.5918884277-12.4795532227,12.4795379639-12.4795532227h-.0000457764Z" style="fill: #212621;"/>
      <path d="M251.244392395,615.9005737305h-90.4618835449c-8.7707977295,0-15.906036377-7.1368408203-15.906036377-15.9092407227v-201.9331054688c0-8.7708129883,7.1352386475-15.9060668945,15.906036377-15.9060668945h90.4618835449c8.7708129883,0,15.906036377,7.1352539062,15.906036377,15.9060668945v201.9331054688c0,8.7723999023-7.1352539062,15.9092407227-15.906036377,15.9092407227Zm-90.4618835449-226.8903198242c-4.988861084,0-9.047958374,4.0590820312-9.047958374,9.0479736328v201.9331054688c0,4.9904785156,4.05909729,9.0512084961,9.047958374,9.0512084961h90.4618835449c4.988861084,0,9.0479736328-4.0607299805,9.0479736328-9.0512084961v-201.9331054688c0-4.9888916016-4.0590820312-9.0479736328-9.0479736328-9.0479736328h-90.4618835449Z" style="fill: url(#linear-gradient-11);"/>
      <rect x="183.0509719849" y="572.8754272461" width="46.3615112305" height="15.4538574219" rx="3.0270385742" ry="3.0270385742" style="fill: #5548d9;"/>
    </g>
  </g>
  <g>
    <rect id="Rectangle_469" data-name="Rectangle 469" x="550.1442337036" y="790.3345947266" width="9.3276977539" height="61.9152832031" style="fill: #5548d9;"/>
    <rect id="Rectangle_470" data-name="Rectangle 470" x="523.8504104614" y="816.6284179688" width="61.9153442383" height="9.3277587891" style="fill: #5548d9;"/>
  </g>
  <g>
    <rect id="Rectangle_469-2" data-name="Rectangle 469-2" x="1244.3442459106" y="161.1325683594" width="9.3277587891" height="61.9153442383" style="fill: #02999a;"/>
    <rect id="Rectangle_470-2" data-name="Rectangle 470-2" x="1218.0504226685" y="187.4263916016" width="61.9152832031" height="9.3276977539" style="fill: #02999a;"/>
  </g>
  <g>
    <circle cx="391.8286209106" cy="187.0482788086" r="79.7415771484" style="fill: url(#linear-gradient-12);"/>
    <g>
      <path d="M352.3891372681,198.5015258789c-1.095916748-3.7423095703-1.6519165039-7.6356811523-1.6519165039-11.5706787109,0-5.870300293,1.212677002-11.5403442383,3.6040649414-16.8525390625l2.520904541,1.1345825195c-2.2297973633,4.9531860352-3.3603515625,10.2412719727-3.3603515625,15.717956543,0,3.6723022461,.5180358887,7.3037109375,1.5402832031,10.7943115234l-2.6529846191,.7763671875Z" style="fill: #fff;"/>
      <path d="M380.4139175415,226.4154052734c-8.858215332-2.556640625-16.6982116699-8.1209106445-22.0749206543-15.6690673828l2.2516784668-1.6037597656c5.0162963867,7.0417480469,12.3283996582,12.232421875,20.5901184082,14.6168823242l-.7668457031,2.6558837891-.0000305176,.0000610352Z" style="fill: #fff;"/>
      <path d="M396.2934646606,227.7813110352l-.2976989746-2.7478027344c8.5192871094-.9208374023,16.5884094238-4.7536010742,22.7210388184-10.7906494141l1.9393920898,1.9700317383c-6.574798584,6.47265625-15.2268981934,10.581237793-24.3627319336,11.5684814453v-.0000610352Z" style="fill: #fff;"/>
      <path d="M429.1032485962,204.2459716797l-2.5070495605-1.1659545898c2.3618469238-5.0746459961,3.5592041016-10.5075683594,3.5592041016-16.1491699219,0-3.1834106445-.3918151855-6.3479003906-1.1630554199-9.4058227539l2.6806945801-.6763916016c.8274230957,3.2789916992,1.2462158203,6.671081543,1.2462158203,10.0822143555,0,6.0472412109-1.2841796875,11.8727416992-3.8160095215,17.3151245117Z" style="fill: #fff;"/>
      <path d="M423.170539856,164.8668823242c-5.2964782715-7.5098266602-13.0934143066-12.8741455078-21.9548950195-15.1050415039l.6741943359-2.6807250977c9.5028381348,2.391784668,17.863067627,8.1424560547,23.5397033691,16.192199707l-2.258972168,1.5935668945h-.0000305176Z" style="fill: #fff;"/>
      <path d="M364.6737442017,159.8834228516l-1.9583435059-1.9510498047c6.4489440918-6.4744873047,14.9729614258-10.6571655273,24.0015563965-11.7775268555l.3407287598,2.7434692383c-8.4189758301,1.0444946289-16.3684082031,4.9458618164-22.3839416504,10.9851074219Z" style="fill: #fff;"/>
      <path d="M357.2394180298,172.6693115234c-2.9696350098,0-5.3858337402-2.4161987305-5.3858337402-5.3858642578s2.4161987305-5.3858642578,5.3858337402-5.3858642578c2.9700012207,0,5.3861999512,2.4161987305,5.3861999512,5.3858642578s-2.4161987305,5.3858642578-5.3861999512,5.3858642578Zm0-8.0070800781c-1.4454345703,0-2.6212463379,1.1758422852-2.6212463379,2.6212158203s1.1758117676,2.6212158203,2.6212463379,2.6212158203,2.6216125488-1.1758422852,2.6216125488-2.6212158203-1.1761779785-2.6212158203-2.6216125488-2.6212158203Z" style="fill: #fff;"/>
      <path d="M391.8284378052,152.436340332c-2.9700012207,0-5.3861999512-2.4161987305-5.3861999512-5.3858642578,0-2.9700317383,2.4161987305-5.3862304688,5.3861999512-5.3862304688,2.9692687988,0,5.3851318359,2.4161987305,5.3851318359,5.3862304688,0,2.9696655273-2.4158325195,5.3858642578-5.3851318359,5.3858642578Zm0-8.0074462891c-1.4454345703,0-2.6216125488,1.1762084961-2.6216125488,2.6215820312s1.1761779785,2.6212158203,2.6216125488,2.6212158203c1.4450683594,0,2.6212463379-1.1758422852,2.6212463379-2.6212158203s-1.1761779785-2.6215820312-2.6212463379-2.6215820312Z" style="fill: #fff;"/>
      <path d="M357.2394180298,211.9743652344c-2.9696350098,0-5.3858337402-2.4158325195-5.3858337402-5.3854980469s2.4161987305-5.3854980469,5.3858337402-5.3854980469c2.9700012207,0,5.3861999512,2.4158325195,5.3861999512,5.3854980469s-2.4161987305,5.3854980469-5.3861999512,5.3854980469Zm0-8.0070800781c-1.4454345703,0-2.6212463379,1.1762084961-2.6212463379,2.6215820312s1.1758117676,2.6215820312,2.6212463379,2.6215820312,2.6216125488-1.1762084961,2.6216125488-2.6215820312-1.1761779785-2.6215820312-2.6216125488-2.6215820312Z" style="fill: #fff;"/>
      <path d="M392.1407241821,231.7935791016c-2.9696350098,0-5.3858337402-2.4158325195-5.3858337402-5.3862304688,0-2.9696655273,2.4161987305-5.3854980469,5.3858337402-5.3854980469,2.9700012207,0,5.3858337402,2.4158325195,5.3858337402,5.3854980469,0,2.9703979492-2.4158325195,5.3862304688-5.3858337402,5.3862304688Zm0-8.0078125c-1.4454345703,0-2.6212463379,1.1762084961-2.6212463379,2.6215820312,0,1.4461669922,1.1758117676,2.6223144531,2.6212463379,2.6223144531,1.4457702637,0,2.6219787598-1.1762084961,2.6219787598-2.6223144531,0-1.4454345703-1.1761779785-2.6215820312-2.6219787598-2.6215820312Z" style="fill: #fff;"/>
      <path d="M425.6899795532,212.5967407227c-2.9696350098,0-5.3854675293-2.4158325195-5.3854675293-5.3854980469s2.4158325195-5.3854980469,5.3854980469-5.3854980469,5.3854980469,2.4158325195,5.3854980469,5.3854980469-2.4158325195,5.3854980469-5.3854980469,5.3854980469h-.0000305176Zm0-8.0070800781c-1.4454345703,0-2.6216125488,1.1762084961-2.6216125488,2.6215820312s1.1761779785,2.6215820312,2.6216125488,2.6215820312,2.6216125488-1.1762084961,2.6216125488-2.6215820312-1.1761779785-2.6215820312-2.6216125488-2.6215820312Z" style="fill: #fff;"/>
      <path d="M426.627571106,172.6693115234c-2.9696350098,0-5.3854980469-2.4161987305-5.3854980469-5.3858642578s2.4158325195-5.3858642578,5.3854980469-5.3858642578c2.9703674316,0,5.3861999512,2.4161987305,5.3861999512,5.3858642578s-2.4158325195,5.3858642578-5.3861999512,5.3858642578Zm0-8.0070800781c-1.4454345703,0-2.6216125488,1.1758422852-2.6216125488,2.6212158203s1.1761779785,2.6212158203,2.6216125488,2.6212158203c1.4461364746,0,2.6223449707-1.1758422852,2.6223449707-2.6212158203s-1.1761779785-2.6212158203-2.6223449707-2.6212158203Z" style="fill: #fff;"/>
      <g>
        <path d="M392.428565979,211.9743652344c-13.588470459,0-24.6436462402-11.0548095703-24.6436462402-24.6428833008,0-2.9466552734,.5147705078-5.8291015625,1.5304260254-8.5674438477,3.5653991699-9.6156005859,12.854095459-16.076171875,23.1132202148-16.076171875,13.588104248,0,24.6429138184,11.0551757812,24.6429138184,24.6436157227,0,13.5881347656-11.0548095703,24.6428833008-24.6429138184,24.6428833008Zm0-46.5219116211c-9.1088562012,0-17.3556213379,5.7357177734-20.5215148926,14.2725219727-.9007568359,2.4296875-1.3574829102,4.9889526367-1.3574829102,7.6065063477,0,12.0639038086,9.8147583008,21.8790283203,21.8790283203,21.8790283203,12.0639038086,0,21.8790283203-9.8151245117,21.8790283203-21.8790283203,0-12.0642700195-9.8151245117-21.8790283203-21.8790283203-21.8790283203h-.0000305176Z" style="fill: #fff;"/>
        <rect x="370.6111831665" y="177.9022827148" width="43.648223877" height="2.7645874023" style="fill: #fff;"/>
        <rect x="370.6111831665" y="193.5990600586" width="43.648223877" height="2.7638549805" style="fill: #fff;"/>
        <path d="M392.1053237915,210.3654785156c-6.8495178223,0-12.2153015137-10.4710693359-12.2153015137-23.8388671875,0-13.3673706055,5.3657836914-23.8388671875,12.2153015137-23.8388671875,6.8498840332,0,12.2149353027,10.4714355469,12.2149353027,23.8388671875,0,13.3677368164-5.3650512695,23.8388671875-12.2149353027,23.8388671875Zm0-44.9130859375c-4.5639038086,0-9.4506835938,8.4682006836-9.4506835938,21.07421875s4.8867797852,21.0749511719,9.4506835938,21.0749511719,9.4510498047-8.4689331055,9.4510498047-21.0749511719-4.8871459961-21.07421875-9.4510498047-21.07421875Z" style="fill: #fff;"/>
      </g>
    </g>
  </g>
  <path d="M1249.0081863403,341.3760375977v-5.6062011719h-112.7181396484v-37.2647705078h29.9312744141c7.4744873047,0,13.5548095703-6.0804443359,13.5548095703-13.5548706055v-28.2005615234c0-7.4744262695-6.0804443359-13.5548706055-13.5548095703-13.5548706055h-65.6590576172c-7.4744873047,0-13.5548095703,6.0804443359-13.5548095703,13.5548706055v28.2005615234c0,7.4744262695,6.0804443359,13.5548706055,13.5548095703,13.5548706055h30.1215820312v37.2647705078h-113.6282958984v5.6062011719h46.9010009766v36.5242919922h-30.0263671875c-7.4744873047,0-13.5548095703,6.0804443359-13.5548095703,13.5548706055v28.2005615234c0,7.4744262695,6.0804443359,13.5548706055,13.5548095703,13.5548706055h65.6590576172c7.4744873047,0,13.5548095703-6.0804443359,13.5548095703-13.5548706055v-28.2005615234c0-7.4744262695-6.0804443359-13.5548706055-13.5548095703-13.5548706055h-30.0263671875v-36.5242919922h125.4976806641v36.5242919922h-30.0263671875c-7.4744873047,0-13.5548095703,6.0804443359-13.5548095703,13.5548706055v28.2005615234c0,7.4744262695,6.0804443359,13.5548706055,13.5548095703,13.5548706055h65.6590576172c7.4744873047,0,13.5548095703-6.0804443359,13.5548095703-13.5548706055v-28.2005615234c0-7.4744262695-6.0804443359-13.5548706055-13.5548095703-13.5548706055h-30.0263671875v-36.5242919922h48.3413085938Zm-156.39453125-56.42578125v-28.2005615234c0-4.3832397461,3.5654296875-7.9486694336,7.9487304688-7.9486694336h65.6590576172c4.3833007812,0,7.9487304688,3.5654296875,7.9487304688,7.9486694336v28.2005615234c0,4.3832397461-3.5654296875,7.9486694336-7.9487304688,7.9486694336h-65.6590576172c-4.3833007812,0-7.9487304688-3.5654296875-7.9487304688-7.9486694336Zm14.9241943359,106.5049438477v28.2005615234c0,4.3832397461-3.5654296875,7.9486694336-7.9487304688,7.9486694336h-65.6590576172c-4.3833007812,0-7.9487304688-3.5654296875-7.9487304688-7.9486694336v-28.2005615234c0-4.3832397461,3.5654296875-7.9486694336,7.9487304688-7.9486694336h65.6590576172c4.3833007812,0,7.9487304688,3.5654296875,7.9487304688,7.9486694336Zm131.1038818359,0v28.2005615234c0,4.3832397461-3.5654296875,7.9486694336-7.9487304688,7.9486694336h-65.6590576172c-4.3833007812,0-7.9487304688-3.5654296875-7.9487304688-7.9486694336v-28.2005615234c0-4.3832397461,3.5654296875-7.9486694336,7.9487304688-7.9486694336h65.6590576172c4.3833007812,0,7.9487304688,3.5654296875,7.9487304688,7.9486694336Z" style="fill: url(#linear-gradient-13);"/>
  <g>
    <path d="M1322.7742996216,616.7074584961h-33.236328125l-.375-1.4526977539c-.1048583984-.4061279297-10.5056152344-40.6815185547-12.0334472656-46.6775512695-.8302001953-3.2563476562-2.3023681641-3.9826660156-3.0562744141-3.9136352539l-.1821289062,.0352783203-.1146240234-.0117797852h-7.9643554688c-1.0700683594,0-1.9381103516-.8680419922-1.9381103516-1.9381713867,0-1.0706176758,.8680419922-1.9381713867,1.9381103516-1.9381713867h7.8160400391c1.9810791016-.2542114258,5.7366943359,.8439941406,7.2569580078,6.8088378906,1.3612060547,5.338684082,9.7674560547,37.9009399414,11.6553955078,45.2125854492h30.2337646484c1.0700683594,0,1.9376220703,.8675537109,1.9376220703,1.9376220703s-.8675537109,1.9376220703-1.9376220703,1.9376220703v.0000610352Z" style="fill: #fff;"/>
    <path d="M1325.6593093872,607.7983398438h-36.0655517578v-3.8762817383h36.0655517578c.4102783203,0,.7734375-.2619018555,.9033203125-.6516723633l8.8840332031-22.6423339844h-54.1293945312v-3.8762817383h54.7677001953c1.1027832031,0,2.1463623047,.5345458984,2.7918701172,1.4291992188,.6455078125,.8951416016,.8225097656,2.0547485352,.4736328125,3.1013183594l-9.1459960938,23.3098754883c-.6240234375,1.8798217773-2.4644775391,3.2061767578-4.5452880859,3.2061767578h.0001220703Z" style="fill: #fff;"/>
    <path d="M1293.6500320435,628.3577880859c-4.2803955078,0-7.7628173828-3.482421875-7.7628173828-7.7628173828s3.482421875-7.7628173828,7.7628173828-7.7628173828c4.2808837891,0,7.7633056641,3.482421875,7.7633056641,7.7628173828s-3.482421875,7.7628173828-7.7633056641,7.7628173828Zm0-11.6503295898c-2.1433105469,0-3.8864746094,1.7442626953-3.8864746094,3.887512207s1.7432861328,3.887512207,3.8864746094,3.887512207,3.8870849609-1.7442626953,3.8870849609-3.887512207-1.7437744141-3.887512207-3.8870849609-3.887512207Z" style="fill: #fff;"/>
    <path d="M1322.2168045044,628.3577880859c-4.2803955078,0-7.7628173828-3.482421875-7.7628173828-7.7628173828s3.482421875-7.7628173828,7.7628173828-7.7628173828,7.7628173828,3.482421875,7.7628173828,7.7628173828-3.482421875,7.7628173828-7.7628173828,7.7628173828Zm0-11.6503295898c-2.1433105469,0-3.8875732422,1.7442626953-3.8875732422,3.887512207s1.7442626953,3.887512207,3.8875732422,3.887512207,3.8875732422-1.7442626953,3.8875732422-3.887512207-1.7442626953-3.887512207-3.8875732422-3.887512207Z" style="fill: #fff;"/>
    <polygon points="1310.1591873169 578.8423461914 1306.283454895 578.8423461914 1306.283454895 567.5413818359 1291.396736145 567.5413818359 1291.396736145 578.8423461914 1287.5205154419 578.8423461914 1287.5205154419 563.6651000977 1310.1591873169 563.6651000977 1310.1591873169 578.8423461914" style="fill: #fff;"/>
    <polygon points="1332.3089675903 579.3313598633 1328.4337234497 579.3313598633 1328.4337234497 559.3135986328 1299.3979568481 559.3135986328 1299.3979568481 565.6032104492 1295.5216140747 565.6032104492 1295.5216140747 555.4373168945 1332.3089675903 555.4373168945 1332.3089675903 579.3313598633" style="fill: #fff;"/>
  </g>
</svg>